<mxfile host="65bd71144e">
    <diagram id="C5RBs43oDa-KdzZeNtuy" name="Page-1">
        <mxGraphModel dx="771" dy="545" grid="0" gridSize="10" guides="1" tooltips="1" connect="1" arrows="1" fold="1" page="1" pageScale="1" pageWidth="827" pageHeight="1169" math="0" shadow="0">
            <root>
                <mxCell id="WIyWlLk6GJQsqaUBKTNV-0"/>
                <mxCell id="WIyWlLk6GJQsqaUBKTNV-1" parent="WIyWlLk6GJQsqaUBKTNV-0"/>
                <mxCell id="fW3wcXRNDF-Xh5MFN2CR-0" value="Admin" style="swimlane;" parent="WIyWlLk6GJQsqaUBKTNV-1" vertex="1">
                    <mxGeometry x="75" y="59" width="200" height="200" as="geometry">
                        <mxRectangle x="75" y="59" width="72" height="26" as="alternateBounds"/>
                    </mxGeometry>
                </mxCell>
                <mxCell id="fW3wcXRNDF-Xh5MFN2CR-3" value="" style="endArrow=none;html=1;rounded=0;" parent="fW3wcXRNDF-Xh5MFN2CR-0" edge="1">
                    <mxGeometry width="50" height="50" relative="1" as="geometry">
                        <mxPoint x="99.76" y="198" as="sourcePoint"/>
                        <mxPoint x="99.76" y="22" as="targetPoint"/>
                    </mxGeometry>
                </mxCell>
                <mxCell id="fW3wcXRNDF-Xh5MFN2CR-4" value="&lt;span style=&quot;font-size: 8px&quot;&gt;- Indicar categorías de servicios&lt;br&gt;- Dar servicios de baja&lt;br&gt;(Avisandole al oferente)&lt;br&gt;&lt;/span&gt;" style="text;html=1;strokeColor=none;fillColor=none;align=left;verticalAlign=middle;whiteSpace=wrap;rounded=0;" parent="fW3wcXRNDF-Xh5MFN2CR-0" vertex="1">
                    <mxGeometry y="24" width="99" height="176" as="geometry"/>
                </mxCell>
                <mxCell id="rozSjkzNouu58hWK4wb9-0" value="&lt;span style=&quot;font-size: 8px&quot;&gt;Employer&lt;br&gt;Employee&lt;br&gt;Service&lt;br&gt;&lt;/span&gt;" style="text;html=1;strokeColor=none;fillColor=none;align=left;verticalAlign=middle;whiteSpace=wrap;rounded=0;" parent="fW3wcXRNDF-Xh5MFN2CR-0" vertex="1">
                    <mxGeometry x="101" y="24" width="99" height="176" as="geometry"/>
                </mxCell>
                <mxCell id="rozSjkzNouu58hWK4wb9-1" value="Employee" style="swimlane;" parent="WIyWlLk6GJQsqaUBKTNV-1" vertex="1">
                    <mxGeometry x="314" y="58" width="200" height="200" as="geometry"/>
                </mxCell>
                <mxCell id="rozSjkzNouu58hWK4wb9-2" value="" style="endArrow=none;html=1;rounded=0;" parent="rozSjkzNouu58hWK4wb9-1" edge="1">
                    <mxGeometry width="50" height="50" relative="1" as="geometry">
                        <mxPoint x="99.76" y="198" as="sourcePoint"/>
                        <mxPoint x="99.76" y="22" as="targetPoint"/>
                    </mxGeometry>
                </mxCell>
                <mxCell id="rozSjkzNouu58hWK4wb9-3" value="&lt;span style=&quot;font-size: 8px&quot;&gt;-&lt;/span&gt;&lt;span style=&quot;font-size: 8px&quot;&gt;Registrarse&lt;br&gt;&lt;/span&gt;&lt;span style=&quot;font-size: 8px&quot;&gt;-Guardar datos (Jonshon)&lt;br&gt;- Conocer datos personales (Los registrados)&lt;br&gt;- Conocer reputación de un empleador&lt;br&gt;- Ofrecer servicios&lt;br&gt;- Calificar a un empleador&lt;br&gt;&lt;br&gt;&lt;/span&gt;" style="text;html=1;strokeColor=none;fillColor=none;align=left;verticalAlign=middle;whiteSpace=wrap;rounded=0;" parent="rozSjkzNouu58hWK4wb9-1" vertex="1">
                    <mxGeometry y="24" width="99" height="176" as="geometry"/>
                </mxCell>
                <mxCell id="rozSjkzNouu58hWK4wb9-4" value="&lt;span style=&quot;font-size: 8px&quot;&gt;Employer&lt;br&gt;Rating&lt;br&gt;Service&lt;br&gt;&lt;/span&gt;" style="text;html=1;strokeColor=none;fillColor=none;align=left;verticalAlign=middle;whiteSpace=wrap;rounded=0;" parent="rozSjkzNouu58hWK4wb9-1" vertex="1">
                    <mxGeometry x="101" y="24" width="99" height="176" as="geometry"/>
                </mxCell>
                <mxCell id="rozSjkzNouu58hWK4wb9-5" value="Employer" style="swimlane;" parent="WIyWlLk6GJQsqaUBKTNV-1" vertex="1">
                    <mxGeometry x="548" y="57" width="200" height="200" as="geometry"/>
                </mxCell>
                <mxCell id="rozSjkzNouu58hWK4wb9-6" value="" style="endArrow=none;html=1;rounded=0;" parent="rozSjkzNouu58hWK4wb9-5" edge="1">
                    <mxGeometry width="50" height="50" relative="1" as="geometry">
                        <mxPoint x="99.76" y="198" as="sourcePoint"/>
                        <mxPoint x="99.76" y="22" as="targetPoint"/>
                    </mxGeometry>
                </mxCell>
                <mxCell id="rozSjkzNouu58hWK4wb9-7" value="&lt;span style=&quot;font-size: 8px&quot;&gt;- Registrarse&lt;br&gt;-&lt;/span&gt;&lt;span style=&quot;font-size: 8px&quot;&gt;Guardar datos (.json)&lt;/span&gt;&lt;span style=&quot;font-size: 8px&quot;&gt;&lt;br&gt;- Buscar ofertas de trabajo&lt;br&gt;&lt;/span&gt;&lt;span style=&quot;font-size: 8px&quot;&gt;-Ver ofertas de trabajo ordenadas por categoría&lt;/span&gt;&lt;br style=&quot;font-size: 8px&quot;&gt;&lt;span style=&quot;font-size: 8px&quot;&gt;- Ver ofertas de trabajo ordenadas por cercanía&lt;br&gt;-&lt;/span&gt;&lt;span style=&quot;font-size: 8px&quot;&gt;&amp;nbsp;Ver ofertas de trabajo ordenadas por reputación&lt;br&gt;&lt;/span&gt;&lt;span style=&quot;font-size: 8px&quot;&gt;- Contactar a un trabajador&lt;br&gt;- Calificar a un trabajador&lt;br&gt;-Conocer reputacón del empleado&lt;br&gt;&lt;/span&gt;" style="text;html=1;strokeColor=none;fillColor=none;align=left;verticalAlign=middle;whiteSpace=wrap;rounded=0;" parent="rozSjkzNouu58hWK4wb9-5" vertex="1">
                    <mxGeometry y="34" width="99" height="157" as="geometry"/>
                </mxCell>
                <mxCell id="rozSjkzNouu58hWK4wb9-8" value="&lt;span style=&quot;font-size: 8px&quot;&gt;Employee&lt;br&gt;&lt;/span&gt;&lt;span style=&quot;font-size: 8px&quot;&gt;Rating&lt;br&gt;Service&lt;br&gt;&lt;/span&gt;" style="text;html=1;strokeColor=none;fillColor=none;align=left;verticalAlign=middle;whiteSpace=wrap;rounded=0;" parent="rozSjkzNouu58hWK4wb9-5" vertex="1">
                    <mxGeometry x="101" y="24" width="99" height="176" as="geometry"/>
                </mxCell>
                <mxCell id="0" value="Service " style="swimlane;" parent="WIyWlLk6GJQsqaUBKTNV-1" vertex="1">
                    <mxGeometry x="75" y="281" width="200" height="200" as="geometry"/>
                </mxCell>
                <mxCell id="1" value="" style="endArrow=none;html=1;rounded=0;" parent="0" edge="1">
                    <mxGeometry width="50" height="50" relative="1" as="geometry">
                        <mxPoint x="99.76" y="198" as="sourcePoint"/>
                        <mxPoint x="99.76" y="22" as="targetPoint"/>
                    </mxGeometry>
                </mxCell>
                <mxCell id="2" value="&lt;span style=&quot;font-size: 8px&quot;&gt;-Mostrar propuestas subidas filtrando segun lo deseado&lt;br&gt;-Mostrar categorias&amp;nbsp;&lt;br&gt;&lt;/span&gt;" style="text;html=1;strokeColor=none;fillColor=none;align=left;verticalAlign=middle;whiteSpace=wrap;rounded=0;" parent="0" vertex="1">
                    <mxGeometry y="24" width="99" height="176" as="geometry"/>
                </mxCell>
                <mxCell id="3" value="&lt;span style=&quot;font-size: 8px&quot;&gt;Employer&lt;br&gt;Employee&lt;br&gt;Admin&lt;br&gt;Rating&lt;br&gt;&lt;/span&gt;" style="text;html=1;strokeColor=none;fillColor=none;align=left;verticalAlign=middle;whiteSpace=wrap;rounded=0;" parent="0" vertex="1">
                    <mxGeometry x="101" y="24" width="99" height="176" as="geometry"/>
                </mxCell>
                <mxCell id="4" value="Rating" style="swimlane;" parent="WIyWlLk6GJQsqaUBKTNV-1" vertex="1">
                    <mxGeometry x="314" y="283" width="200" height="200" as="geometry"/>
                </mxCell>
                <mxCell id="5" value="" style="endArrow=none;html=1;rounded=0;" parent="4" edge="1">
                    <mxGeometry width="50" height="50" relative="1" as="geometry">
                        <mxPoint x="99.76" y="198" as="sourcePoint"/>
                        <mxPoint x="99.76" y="22" as="targetPoint"/>
                    </mxGeometry>
                </mxCell>
                <mxCell id="6" value="&lt;span style=&quot;font-size: 8px&quot;&gt;-Almacenar puntaje&lt;br&gt;-Realizar promedio&lt;br&gt;&lt;/span&gt;" style="text;html=1;strokeColor=none;fillColor=none;align=left;verticalAlign=middle;whiteSpace=wrap;rounded=0;" parent="4" vertex="1">
                    <mxGeometry y="24" width="99" height="176" as="geometry"/>
                </mxCell>
                <mxCell id="7" value="&lt;span style=&quot;font-size: 8px&quot;&gt;&lt;br&gt;&lt;/span&gt;" style="text;html=1;strokeColor=none;fillColor=none;align=left;verticalAlign=middle;whiteSpace=wrap;rounded=0;" parent="4" vertex="1">
                    <mxGeometry x="101" y="24" width="99" height="176" as="geometry"/>
                </mxCell>
                <mxCell id="9" value="ConsolePrinter" style="swimlane;" parent="WIyWlLk6GJQsqaUBKTNV-1" vertex="1">
                    <mxGeometry x="548" y="283" width="200" height="200" as="geometry"/>
                </mxCell>
                <mxCell id="10" value="" style="endArrow=none;html=1;rounded=0;" parent="9" edge="1">
                    <mxGeometry width="50" height="50" relative="1" as="geometry">
                        <mxPoint x="99.76" y="198" as="sourcePoint"/>
                        <mxPoint x="99.76" y="22" as="targetPoint"/>
                    </mxGeometry>
                </mxCell>
                <mxCell id="11" value="&lt;span style=&quot;font-size: 8px&quot;&gt;-Imprimir&lt;br&gt;&lt;/span&gt;" style="text;html=1;strokeColor=none;fillColor=none;align=left;verticalAlign=middle;whiteSpace=wrap;rounded=0;" parent="9" vertex="1">
                    <mxGeometry y="24" width="99" height="176" as="geometry"/>
                </mxCell>
                <mxCell id="12" value="&lt;span style=&quot;font-size: 8px&quot;&gt;Employee&lt;br&gt;Employer&lt;br&gt;Rating&lt;br&gt;Service&lt;br&gt;Admin&lt;br&gt;&lt;/span&gt;" style="text;html=1;strokeColor=none;fillColor=none;align=left;verticalAlign=middle;whiteSpace=wrap;rounded=0;" parent="9" vertex="1">
                    <mxGeometry x="101" y="24" width="99" height="176" as="geometry"/>
                </mxCell>
            </root>
        </mxGraphModel>
    </diagram>
</mxfile>